<svg width="32" height="32" viewBox="0 0 32 32" fill="none" xmlns="http://www.w3.org/2000/svg">
<path d="M16.253 17.0879H12.342C11.7898 17.0879 11.342 17.5356 11.342 18.0879C11.342 18.6402 11.7898 19.0879 12.342 19.0879H16.253C16.8053 19.0879 17.253 18.6402 17.253 18.0879C17.253 17.5356 16.8053 17.0879 16.253 17.0879Z" fill="#2F80ED"/>
<path d="M15.006 1.91188C15.1237 1.97018 15.2287 2.0511 15.3151 2.15002C15.4014 2.24894 15.4674 2.36392 15.5093 2.48837C15.5512 2.61283 15.5681 2.74433 15.5592 2.87534C15.5502 3.00634 15.5155 3.1343 15.457 3.25188L14.874 4.42788L16.05 5.01188C16.2875 5.12977 16.4684 5.33718 16.553 5.58847C16.6376 5.83977 16.6189 6.11438 16.501 6.35188C16.3831 6.58938 16.1757 6.77032 15.9244 6.8549C15.6731 6.93948 15.3985 6.92077 15.161 6.80288L12.862 5.66188C12.7743 5.61837 12.6961 5.55802 12.6317 5.48426C12.5674 5.4105 12.5182 5.32478 12.487 5.232C12.4558 5.13923 12.4432 5.04121 12.4499 4.94356C12.4566 4.84591 12.4824 4.75053 12.526 4.66288L13.667 2.36288C13.7253 2.24521 13.8062 2.14019 13.9051 2.05383C14.0041 1.96746 14.119 1.90145 14.2435 1.85956C14.368 1.81767 14.4994 1.80073 14.6305 1.80971C14.7615 1.81869 14.8894 1.85341 15.007 1.91188H15.006ZM17.603 23.2409H4.601C3.64628 23.2398 2.73097 22.8601 2.05588 22.185C1.38079 21.5099 1.00106 20.5946 1 19.6399V11.8379C1.00106 10.8832 1.38079 9.96785 2.05588 9.29276C2.73097 8.61767 3.64628 8.23794 4.601 8.23688H17.603C18.5577 8.23794 19.473 8.61767 20.1481 9.29276C20.8232 9.96785 21.2029 10.8832 21.204 11.8379V19.6399C21.2029 20.5946 20.8232 21.5099 20.1481 22.185C19.473 22.8601 18.5577 23.2398 17.603 23.2409ZM4.601 10.2379C3.718 10.2379 3 10.9559 3 11.8389V19.6409C3 20.5229 3.718 21.2419 4.601 21.2419H17.603C18.486 21.2419 19.204 20.5239 19.204 19.6409V11.8389C19.204 10.9569 18.486 10.2379 17.603 10.2379H4.601Z" fill="#2F80ED"/>
<path d="M1.99805 12.6899H20.202V14.6899H1.99805V12.6899Z" fill="#2F80ED"/>
<path d="M18 29C14.5862 29.0077 11.3078 27.6651 8.88003 25.265C7.97916 24.3784 7.21212 23.3655 6.60303 22.258L8.35503 21.294C8.87123 22.2314 9.52066 23.089 10.283 23.84C12.3374 25.8714 15.1119 27.0078 18.001 27.001C24.066 27.001 29.001 22.066 29.001 16.001C29.001 9.93596 24.066 5.00096 18.001 5.00096C16.84 5.00096 15.697 5.18096 14.606 5.53496L13.989 3.63296C15.285 3.21335 16.6389 3.00041 18.001 3.00196C25.169 3.00196 31.001 8.83396 31.001 16.002C31.001 23.17 25.169 29.002 18.001 29.002L18 29Z" fill="#2F80ED"/>
</svg>
