<svg width="32" height="32" viewBox="0 0 32 32" fill="none" xmlns="http://www.w3.org/2000/svg">
<path d="M31 12H28C27.447 12 27 12.448 27 13V14H26V13C26 12.448 25.553 12 25 12H23.414L20.708 9.294C20.616 9.201 20.505 9.128 20.382 9.077C20.26 9.027 20.13 9 20 9H17V7H19C19.553 7 20 6.552 20 6C20 5.448 19.553 5 19 5H10C9.447 5 9 5.448 9 6C9 6.552 9.447 7 10 7H12V9H9C8.968 9 8.941 9.015 8.91 9.018C8.838 9.025 8.771 9.038 8.703 9.06C8.644 9.079 8.59 9.1 8.536 9.129C8.48 9.159 8.429 9.194 8.378 9.235C8.32602 9.27781 8.27845 9.32572 8.236 9.378C8.215 9.403 8.187 9.418 8.168 9.446L6.465 12H4C3.447 12 3 12.448 3 13V16H2V13C2 12.448 1.553 12 1 12C0.447 12 0 12.448 0 13V22C0 22.552 0.447 23 1 23C1.553 23 2 22.552 2 22V18H3V22C3 22.552 3.447 23 4 23H6.382L8.106 26.447C8.153 26.541 8.215 26.623 8.285 26.695C8.299 26.71 8.317 26.72 8.332 26.733C8.40258 26.7971 8.48207 26.8507 8.568 26.892C8.597 26.906 8.626 26.919 8.657 26.93C8.766 26.971 8.88 26.999 8.998 27H21C21.146 27 21.283 26.965 21.408 26.909C21.441 26.894 21.466 26.867 21.497 26.849C21.588 26.795 21.672 26.735 21.742 26.656C21.753 26.643 21.77 26.639 21.781 26.625L25.481 22H27V23C27 23.552 27.447 24 28 24H31C31.553 24 32 23.552 32 23V13C32 12.448 31.553 12 31 12ZM30 22H29V21C29 20.448 28.553 20 28 20H25C24.981 20 24.965 20.01 24.946 20.011C24.878 20.015 24.814 20.033 24.748 20.051C24.686 20.068 24.625 20.08 24.568 20.107C24.516 20.132 24.472 20.17 24.424 20.204C24.366 20.246 24.309 20.286 24.261 20.34C24.248 20.354 24.231 20.36 24.219 20.375L20.519 25H9.618L7.894 21.553C7.872 21.509 7.834 21.48 7.806 21.44C7.764 21.38 7.727 21.32 7.673 21.27C7.625 21.226 7.57 21.197 7.515 21.164C7.461 21.13 7.411 21.094 7.35 21.071C7.281 21.045 7.208 21.038 7.134 21.027C7.089 21.021 7.048 21 7 21H5V14H7.001C7.12 14 7.236 13.972 7.347 13.93C7.369 13.922 7.391 13.915 7.413 13.905C7.51494 13.8592 7.60829 13.7963 7.689 13.719C7.705 13.704 7.717 13.686 7.732 13.67C7.766 13.633 7.803 13.598 7.831 13.555L9.535 11H13C13.553 11 14 10.552 14 10V7H15V10C15 10.552 15.447 11 16 11H19.586L22.292 13.706C22.384 13.799 22.495 13.872 22.618 13.923C22.74 13.973 22.87 14 23 14H24V15C24 15.552 24.447 16 25 16H28C28.553 16 29 15.552 29 15V14H30V22Z" fill="#2F80ED"/>
<path d="M19.56 14.171C19.101 13.861 18.481 13.982 18.171 14.439L14.031 20.558L11.61 18.69C11.171 18.352 10.545 18.434 10.208 18.871C9.87103 19.308 9.95203 19.936 10.389 20.273L13.653 22.791C13.761 22.8749 13.8851 22.9356 14.0176 22.9693C14.1501 23.003 14.2881 23.009 14.423 22.987C14.5578 22.9653 14.6867 22.9163 14.8018 22.8428C14.9169 22.7694 15.0156 22.6731 15.092 22.56L19.828 15.56C20.138 15.102 20.017 14.481 19.56 14.171Z" fill="#2F80ED"/>
</svg>
