<svg width="32" height="32" viewBox="0 0 32 32" fill="none" xmlns="http://www.w3.org/2000/svg">
<path fill-rule="evenodd" clip-rule="evenodd" d="M25 19C25 18.7348 25.1053 18.4804 25.2929 18.2929C25.4804 18.1053 25.7348 18 26 18C26.2652 18 26.5196 18.1053 26.7071 18.2929C26.8946 18.4804 27 18.7348 27 19V20C27 22.259 25.275 24.41 23.091 26.104C20.103 28.421 16.369 29.927 16.369 29.927C16.1291 30.0239 15.8609 30.0239 15.621 29.927C15.621 29.927 11.887 28.421 8.89899 26.104C6.71499 24.41 4.98999 22.259 4.98999 20C4.98999 16.308 4.99599 11.475 4.99899 9.23598C5.00007 8.67841 5.15642 8.13216 5.4505 7.65845C5.74458 7.18475 6.16477 6.8023 6.66399 6.55398L14.721 2.54998C15.1379 2.34252 15.5975 2.23505 16.0632 2.23609C16.5289 2.23713 16.988 2.34666 17.404 2.55598L25.348 6.55298C25.8447 6.80267 26.2622 7.18552 26.5539 7.65877C26.8457 8.13202 27.0001 8.67704 27 9.23298V15C27 15.2652 26.8946 15.5195 26.7071 15.7071C26.5196 15.8946 26.2652 16 26 16C25.7348 16 25.4804 15.8946 25.2929 15.7071C25.1053 15.5195 25 15.2652 25 15V9.23298C25.0001 9.04752 24.9486 8.8657 24.8513 8.70783C24.754 8.54995 24.6147 8.42224 24.449 8.33898L16.506 4.34298C16.3672 4.27315 16.2141 4.23661 16.0587 4.23626C15.9034 4.23591 15.7501 4.27177 15.611 4.34098L7.55399 8.34498C7.38768 8.42787 7.2477 8.55538 7.14969 8.71326C7.05168 8.87113 6.9995 9.05315 6.99899 9.23898C6.99599 11.477 6.98999 16.309 6.98999 20C6.98999 21.715 8.46599 23.238 10.125 24.524C12.351 26.25 15.024 27.491 15.996 27.914C16.966 27.491 19.639 26.25 21.865 24.524C23.524 23.238 25 21.715 25 20V19ZM10.843 16.704C10.744 16.6177 10.6629 16.5128 10.6045 16.3952C10.546 16.2776 10.5113 16.1496 10.5023 16.0186C10.4841 15.754 10.5717 15.4929 10.746 15.293C10.9202 15.093 11.1668 14.9704 11.4314 14.9522C11.5624 14.9432 11.6939 14.9601 11.8184 15.0019C11.9429 15.0438 12.058 15.1097 12.157 15.196L14.922 17.605L19.763 12.324C19.8518 12.2272 19.9587 12.1488 20.0778 12.0934C20.1968 12.038 20.3256 12.0065 20.4569 12.0008C20.5881 11.9952 20.7191 12.0154 20.8425 12.0604C20.9659 12.1054 21.0792 12.1742 21.176 12.263C21.2728 12.3517 21.3511 12.4587 21.4066 12.5778C21.462 12.6968 21.4935 12.8256 21.4991 12.9568C21.5048 13.0881 21.4846 13.2191 21.4396 13.3425C21.3946 13.4659 21.3258 13.5792 21.237 13.676L15.737 19.676C15.5607 19.8682 15.3163 19.984 15.0559 19.9985C14.7954 20.0131 14.5396 19.9253 14.343 19.754L10.843 16.704Z" fill="#2F80ED"/>
</svg>
