<svg width="192" height="192" viewBox="0 0 192 192" fill="none" xmlns="http://www.w3.org/2000/svg">
<g clip-path="url(#clip0_596_477)">
<path d="M192 192H0V0H192V192ZM60.8 165C73.89 165 86.5 165.23 99.11 164.95C120.67 164.47 133.28 152.98 134.05 131.42C134.89 107.82 134.9 84.14 134.05 60.54C133.28 38.75 120.97 27.58 99.17 27.1C87.52 26.84 75.86 27.02 64.21 27.05C63.12 27.05 62 27.05 60.79 27.05V165H60.8Z" fill="#CC0033"/>
<path d="M87.1699 51.5099C88 51.5 87.7 51.53 88 51.5C104.07 50.07 108.54 53.9699 108.59 70.2899C108.64 87.2599 108.6 104.23 108.6 121.2C108.6 121.37 108.6 121.53 108.6 121.7C108.47 137.86 103.79 142.01 87.1699 140.31V51.5099Z" fill="#CC0033"/>
</g>
<defs>
<clipPath id="clip0_596_477">
<rect width="192" height="192" fill="white"/>
</clipPath>
</defs>
</svg>
