<svg xmlns="http://www.w3.org/2000/svg" fill="none" viewBox="0 0 24 24" class="IconSvg IconSvg_name_SvgDiesel IconSvg_size_24 EngineTypeField__icon"><path fill="#F03C3D" fill-rule="evenodd" d="M19.099 14.7v5.7h.7c.6 0 1.1-.2 1.4-.7.3-.4.5-1.1.5-2v-.4c0-.9-.2-1.5-.5-2-.3-.4-.8-.7-1.4-.7zM16.998 22v-9h2.9c.8 0 1.5.2 2.1.5.6.4 1.1.9 1.5 1.5.4.7.5 1.4.5 2.2v.399c0 .801-.2 1.601-.5 2.201-.3.7-.8 1.2-1.5 1.5-.6.4-1.3.6-2.1.6h-2.9z" clip-rule="evenodd"></path><path fill="#757575" d="M11 0c-.8 0-1.5.7-1.5 1.5S10.2 3 11.1 3h2v2H8.3L7.2 8H5v9h2.1l2 3H14V10h8l-2.2-5H16V3h2c.8 0 1.5-.7 1.5-1.5S18.8 0 18 0zM3 16.9c0 .8-.7 1.5-1.5 1.5S0 17.7 0 16.9v-9c0-.8.7-1.5 1.5-1.5S3 7.1 3 7.9z"></path></svg>