<svg width="32" height="32" viewBox="0 0 32 32" fill="none" xmlns="http://www.w3.org/2000/svg">
<g clip-path="url(#clip0_110_1837)">
<path d="M18.6816 7.6875C20.2709 8.11493 21.72 8.95245 22.8837 10.1162C24.0475 11.2799 24.885 12.729 25.3124 14.3183" stroke="#2F80ED" stroke-width="2" stroke-linecap="round" stroke-linejoin="round"/>
<path d="M17.7109 11.3106C18.6645 11.5671 19.534 12.0696 20.2322 12.7678C20.9304 13.4661 21.4329 14.3355 21.6894 15.2891" stroke="#2F80ED" stroke-width="2" stroke-linecap="round" stroke-linejoin="round"/>
<path d="M10.8371 17.6268C11.8095 19.6149 13.4211 21.2192 15.4136 22.1826C15.5594 22.2516 15.7207 22.2816 15.8815 22.2694C16.0424 22.2572 16.1973 22.2034 16.3311 22.1131L19.2649 20.1568C19.3947 20.0703 19.544 20.0175 19.6993 20.0032C19.8546 19.9889 20.011 20.0136 20.1543 20.0751L25.643 22.4274C25.8295 22.5066 25.9852 22.6442 26.0866 22.8196C26.188 22.995 26.2297 23.1985 26.2054 23.3996C26.0319 24.7572 25.3695 26.0049 24.3423 26.9092C23.3151 27.8135 21.9935 28.3124 20.625 28.3125C16.3981 28.3125 12.3443 26.6334 9.35549 23.6445C6.36662 20.6557 4.6875 16.6019 4.6875 12.375C4.68757 11.0065 5.18648 9.68486 6.0908 8.65767C6.99512 7.63048 8.24285 6.96813 9.60035 6.79465C9.80146 6.77031 10.005 6.81199 10.1804 6.91341C10.3558 7.01483 10.4934 7.17049 10.5726 7.35694L12.927 12.8504C12.9879 12.9925 13.0127 13.1475 12.9992 13.3015C12.9857 13.4555 12.9344 13.6038 12.8497 13.7331L10.9001 16.712C10.8114 16.846 10.7589 17.0007 10.7479 17.1611C10.7368 17.3214 10.7676 17.4819 10.8371 17.6268V17.6268Z" stroke="#2F80ED" stroke-width="2" stroke-linecap="round" stroke-linejoin="round"/>
</g>
<defs>
<clipPath id="clip0_110_1837">
<rect width="32" height="32" fill="white"/>
</clipPath>
</defs>
</svg>
