<svg width="32" height="32" viewBox="0 0 32 32" fill="none" xmlns="http://www.w3.org/2000/svg">
<path d="M20 10H12C11.4698 10.0008 10.9616 10.2118 10.5867 10.5867C10.2118 10.9616 10.0008 11.4698 10 12V20C10.0008 20.5302 10.2118 21.0384 10.5867 21.4133C10.9616 21.7882 11.4698 21.9992 12 22H20C20.5302 21.9992 21.0384 21.7882 21.4133 21.4133C21.7882 21.0384 21.9992 20.5302 22 20V12C21.9992 11.4698 21.7882 10.9616 21.4133 10.5867C21.0384 10.2118 20.5302 10.0008 20 10ZM12 20V12H20L20.002 20H12Z" fill="#2F80ED"/>
<path d="M29 17C29.2652 17 29.5196 16.8946 29.7071 16.7071C29.8946 16.5196 30 16.2652 30 16C30 15.7348 29.8946 15.4804 29.7071 15.2929C29.5196 15.1054 29.2652 15 29 15H27V12H29C29.2652 12 29.5196 11.8946 29.7071 11.7071C29.8946 11.5196 30 11.2652 30 11C30 10.7348 29.8946 10.4804 29.7071 10.2929C29.5196 10.1054 29.2652 10 29 10H27V8C26.9992 7.20459 26.6829 6.44199 26.1204 5.87956C25.558 5.31712 24.7954 5.00079 24 5H22V3C22 2.73478 21.8946 2.48043 21.7071 2.29289C21.5196 2.10536 21.2652 2 21 2C20.7348 2 20.4804 2.10536 20.2929 2.29289C20.1054 2.48043 20 2.73478 20 3V5H17V3C17 2.73478 16.8946 2.48043 16.7071 2.29289C16.5196 2.10536 16.2652 2 16 2C15.7348 2 15.4804 2.10536 15.2929 2.29289C15.1054 2.48043 15 2.73478 15 3V5H12V3C12 2.73478 11.8946 2.48043 11.7071 2.29289C11.5196 2.10536 11.2652 2 11 2C10.7348 2 10.4804 2.10536 10.2929 2.29289C10.1054 2.48043 10 2.73478 10 3V5H8C7.20459 5.00079 6.44199 5.31712 5.87956 5.87956C5.31712 6.44199 5.00079 7.20459 5 8V10H3C2.73478 10 2.48043 10.1054 2.29289 10.2929C2.10536 10.4804 2 10.7348 2 11C2 11.2652 2.10536 11.5196 2.29289 11.7071C2.48043 11.8946 2.73478 12 3 12H5V15H3C2.73478 15 2.48043 15.1054 2.29289 15.2929C2.10536 15.4804 2 15.7348 2 16C2 16.2652 2.10536 16.5196 2.29289 16.7071C2.48043 16.8946 2.73478 17 3 17H5V20H3C2.73478 20 2.48043 20.1054 2.29289 20.2929C2.10536 20.4804 2 20.7348 2 21C2 21.2652 2.10536 21.5196 2.29289 21.7071C2.48043 21.8946 2.73478 22 3 22H5V24C5.00079 24.7954 5.31712 25.558 5.87956 26.1204C6.44199 26.6829 7.20459 26.9992 8 27H10V29C10 29.2652 10.1054 29.5196 10.2929 29.7071C10.4804 29.8946 10.7348 30 11 30C11.2652 30 11.5196 29.8946 11.7071 29.7071C11.8946 29.5196 12 29.2652 12 29V27H15V29C15 29.2652 15.1054 29.5196 15.2929 29.7071C15.4804 29.8946 15.7348 30 16 30C16.2652 30 16.5196 29.8946 16.7071 29.7071C16.8946 29.5196 17 29.2652 17 29V27H20V29C20 29.2652 20.1054 29.5196 20.2929 29.7071C20.4804 29.8946 20.7348 30 21 30C21.2652 30 21.5196 29.8946 21.7071 29.7071C21.8946 29.5196 22 29.2652 22 29V27H24C24.7954 26.9992 25.558 26.6829 26.1204 26.1204C26.6829 25.558 26.9992 24.7954 27 24V22H29C29.2652 22 29.5196 21.8946 29.7071 21.7071C29.8946 21.5196 30 21.2652 30 21C30 20.7348 29.8946 20.4804 29.7071 20.2929C29.5196 20.1054 29.2652 20 29 20H27V17H29ZM25 24C25 24.2652 24.8946 24.5196 24.7071 24.7071C24.5196 24.8946 24.2652 25 24 25H8C7.73478 25 7.48043 24.8946 7.29289 24.7071C7.10536 24.5196 7 24.2652 7 24V8C7 7.73478 7.10536 7.48043 7.29289 7.29289C7.48043 7.10536 7.73478 7 8 7H24C24.2652 7 24.5196 7.10536 24.7071 7.29289C24.8946 7.48043 25 7.73478 25 8V24Z" fill="#2F80ED"/>
</svg>
