<svg xmlns="http://www.w3.org/2000/svg" fill="none" viewBox="0 0 24 24" class="IconSvg IconSvg_name_SvgGasoline IconSvg_size_24 EngineTypeField__icon"><path fill="#757575" fill-rule="evenodd" d="M9.001 0c-.8 0-1.5.7-1.5 1.5s.7 1.5 1.5 1.5h2v2h-2.8l-1.1 3h-2.1v9h2.2l2 3h9.9v-3h2v2h2.3s.6-2.4.6-6.5-.6-6.5-.6-6.5h-2.4v2h-2l-2.2-3h-2.8V3h2c.8 0 1.5-.7 1.5-1.5s-.7-1.5-1.5-1.5z" clip-rule="evenodd"></path><path fill="#F03C3D" fill-rule="evenodd" d="M1.5 19C.7 19 0 18.3 0 17.5v-10C0 6.7.7 6 1.5 6S3 6.7 3 7.5v10c0 .8-.7 1.5-1.5 1.5" clip-rule="evenodd"></path></svg>