<svg width="18" height="18" viewBox="0 0 18 18" fill="none" xmlns="http://www.w3.org/2000/svg">
<path fill-rule="evenodd" clip-rule="evenodd" d="M14.833 3.32208C15.6489 2.97852 16.5236 3.66847 16.3795 4.54199L14.6779 14.8595C14.5138 15.8543 13.4212 16.4251 12.5085 15.9294C11.7448 15.5146 10.6117 14.8761 9.59047 14.2088C9.08055 13.8756 7.51912 12.8071 7.71105 12.0466C7.87515 11.3962 10.5001 8.95282 12.0001 7.4997C12.5893 6.92889 12.3209 6.59914 11.6251 7.1247C9.89887 8.42842 7.12749 10.4106 6.21102 10.9684C5.40242 11.4606 4.98023 11.5446 4.47664 11.4606C3.55704 11.3074 2.70447 11.0701 2.00841 10.7815C1.06763 10.3915 1.11345 9.0987 2.00777 8.7222L14.833 3.32208Z" fill="#37AEE2"/>
</svg>
