<svg width="32" height="32" viewBox="0 0 32 32" fill="none" xmlns="http://www.w3.org/2000/svg">
<g clip-path="url(#clip0_131_1255)">
<path d="M31.0625 5.71875H29.1875C28.6693 5.71875 28.25 6.13806 28.25 6.65625V14.1562C28.25 14.6744 28.6693 15.0938 29.1875 15.0938H31.0625C31.5807 15.0938 32 14.6744 32 14.1562V6.65625C32 6.13806 31.5807 5.71875 31.0625 5.71875ZM12.0336 21.6911C11.2701 22.4884 10.3007 23.0586 9.23288 23.3384C9.91563 23.9185 10.7591 24.3 11.6933 24.4124C12.1191 23.5542 12.2401 22.6054 12.0336 21.6911ZM16.9375 19.7812C16.9379 19.1509 16.8103 18.527 16.5626 17.9474C15.6013 18.0057 14.7109 18.3754 14.0158 19.0141C15.0894 19.2809 16.0715 19.8416 16.8514 20.632C16.9026 20.3553 16.9375 20.0726 16.9375 19.7812ZM12.8068 15.1501C12.3818 16.0064 12.2608 16.9529 12.4655 17.8655C13.2303 17.0683 14.2009 16.5043 15.2679 16.2246C14.5851 15.6443 13.7413 15.2626 12.8068 15.1501ZM15.9851 22.5829C15.4564 21.7847 14.6956 21.2063 13.8013 20.9268C14.1094 21.9892 14.1125 23.113 13.8196 24.1786C14.6819 23.8698 15.4348 23.315 15.9851 22.5829ZM7.5625 19.7812C7.56216 20.4117 7.68978 21.0356 7.93763 21.6152C8.90325 21.5576 9.79363 21.1875 10.4874 20.5478C9.40931 20.2818 8.428 19.7215 7.64844 18.9314C7.59738 19.2079 7.5625 19.4902 7.5625 19.7812ZM8.51444 16.9803C9.04381 17.7821 9.80488 18.3678 10.7011 18.6462C10.39 17.5809 10.3866 16.453 10.6804 15.384C9.8178 15.6927 9.06469 16.2477 8.51444 16.9803Z" fill="#F03C3D"/>
<path d="M0 19.7813C0 26.5013 5.53 31.9688 12.25 31.9688C18.97 31.9688 24.4375 26.5013 24.4375 19.7813C24.4373 18.1723 24.1189 16.5792 23.5007 15.0938H16.8282C18.0543 16.2914 18.8125 18.0881 18.8125 19.7813C18.8125 23.6157 15.5922 26.3438 12.25 26.3438L12.2493 26.3436L12.2491 26.3438L12.2486 26.3436C8.55994 26.3428 5.6875 23.2633 5.6875 19.7813C5.6875 16.1726 8.70131 13.2188 12.25 13.2188H26.375V7.59376H12.25C5.53 7.59376 0 13.0613 0 19.7813ZM12.25 5.71876H16.2342L11.6329 0.362324C11.472 0.172887 11.2425 0.0550171 10.9948 0.0345738C10.7357 0.0135113 10.4995 0.0931988 10.3118 0.255199L7.45512 2.68464C7.06075 3.02007 7.01294 3.61164 7.34825 4.00607L9.14569 6.07539C10.1459 5.84901 11.1821 5.71876 12.25 5.71876Z" fill="#757575"/>
</g>
<defs>
<clipPath id="clip0_131_1255">
<rect width="32" height="32" fill="white"/>
</clipPath>
</defs>
</svg>
