<svg width="18" height="18" viewBox="0 0 18 18" fill="none" xmlns="http://www.w3.org/2000/svg">
<g clip-path="url(#clip0_130_826)">
<path fill-rule="evenodd" clip-rule="evenodd" d="M9.16325 0C4.28672 0 0.326507 3.93031 0.326507 8.77003C0.326507 10.4216 0.789936 11.9791 1.5904 13.2962L0 18L4.88707 16.4425C6.15097 17.1324 7.60445 17.5296 9.16325 17.5296C14.0398 17.5296 18 13.5993 18 8.75958C18 3.93031 14.0398 0 9.16325 0ZM9.16325 16.1394C7.65711 16.1394 6.24576 15.6899 5.07665 14.9164L2.22235 15.8258L3.14921 13.0871C2.26448 11.8746 1.73786 10.3798 1.73786 8.75958C1.73786 4.70383 5.06612 1.4007 9.16325 1.4007C13.2604 1.4007 16.5886 4.70383 16.5886 8.77003C16.5886 12.8362 13.2604 16.1394 9.16325 16.1394Z" fill="#25D366"/>
<path fill-rule="evenodd" clip-rule="evenodd" d="M7.08839 5.14291C6.94093 4.79796 6.83561 4.78751 6.61443 4.77705C6.5407 4.77705 6.45644 4.7666 6.36165 4.7666C6.07727 4.7666 5.78236 4.85023 5.60331 5.02793C5.38213 5.24744 4.84497 5.75963 4.84497 6.81538C4.84497 7.87113 5.62437 8.89552 5.7297 9.04186C5.83502 9.1882 7.24638 11.3833 9.4266 12.2823C11.1329 12.9826 11.6384 12.9199 12.0281 12.8363C12.5969 12.7109 13.3025 12.3032 13.4816 11.8014C13.6607 11.2997 13.6607 10.8711 13.608 10.7771C13.5553 10.683 13.4079 10.6307 13.1972 10.5262C12.976 10.4217 11.9123 9.89901 11.7121 9.82584C11.512 9.75266 11.333 9.77357 11.175 9.98263C10.9643 10.2753 10.7642 10.568 10.5957 10.7457C10.4588 10.8816 10.2481 10.9025 10.0691 10.8293C9.82683 10.7248 9.15275 10.4948 8.33122 9.76312C7.69927 9.20911 7.26744 8.49831 7.14105 8.28925C7.01466 8.06974 7.13052 7.9443 7.22531 7.82932C7.34117 7.69343 7.43596 7.59935 7.55182 7.47392C7.65714 7.34848 7.72034 7.28577 7.79406 7.13942C7.86779 6.99308 7.81513 6.84674 7.76247 6.74221C7.69927 6.62723 7.26744 5.57148 7.08839 5.14291Z" fill="#25D366"/>
</g>
<defs>
<clipPath id="clip0_130_826">
<rect width="18" height="18" fill="white"/>
</clipPath>
</defs>
</svg>
