<svg width="32" height="32" viewBox="0 0 32 32" fill="none" xmlns="http://www.w3.org/2000/svg">
<g clip-path="url(#clip0_2581_298)">
<path d="M26 0H6C2.68629 0 0 2.68629 0 6V26C0 29.3137 2.68629 32 6 32H26C29.3137 32 32 29.3137 32 26V6C32 2.68629 29.3137 0 26 0Z" fill="white"/>
<path d="M21.8414 9.6042C20.8698 10.3212 19.903 11.0447 18.9357 11.7675C18.7636 11.8962 18.615 11.896 18.4055 11.8033C17.4419 11.3771 16.4102 11.2291 15.3753 11.065C14.3551 10.9032 13.3456 11.0133 12.3726 11.1944C10.7074 11.5042 9.20169 12.242 7.87397 13.3218C6.09937 14.7649 4.92345 16.6013 4.19419 18.7438C4.09554 19.0337 4.06851 19.3395 3.96277 19.631C3.85528 19.9274 3.66348 20.0405 3.38824 19.9873C3.12847 19.9372 2.98889 19.749 3.00069 19.4685C3.04031 18.5298 3.24602 17.6271 3.54645 16.7378C4.06816 15.1939 4.80266 13.8381 5.7476 12.6685C5.98068 12.38 6.22653 12.1028 6.48535 11.837C6.48551 11.8368 6.48566 11.8365 6.48593 11.8363C7.1924 11.1102 7.99402 10.4686 8.89017 9.91081C8.89006 9.9109 8.89033 9.91081 8.89017 9.91081C10.8163 8.73535 13.6707 7.71149 17.5574 8.07421C17.6627 8.10871 17.7762 8.11229 17.8893 8.10828C18.3219 8.15681 18.767 8.22242 19.2248 8.30667C19.2739 8.31573 19.3226 8.32453 19.3708 8.33325C19.7998 8.46202 20.2186 8.62017 20.6449 8.75844C21.0298 8.88329 21.4012 9.0498 21.7773 9.20123C22.0173 9.29785 22.0993 9.41391 21.8414 9.6042Z" fill="#A32016"/>
<path d="M11.0001 19.7485C10.9821 17.6938 13.1426 16.0859 15.0131 16.4292C15.2686 16.476 15.5462 16.4032 15.787 16.2312C18.0183 14.6383 20.2575 13.0552 22.4944 11.4692C23.1178 11.0272 23.7444 10.5889 24.3624 10.1407C24.5461 10.0074 24.7704 9.93526 24.9213 10.0783C25.0757 10.2247 24.9782 10.4322 24.841 10.6004C23.8475 11.8186 22.8612 13.0417 21.8682 14.2603C20.6517 15.7531 19.4335 17.2447 18.2087 18.7316C18.0824 18.8849 18.0294 19.0129 18.0732 19.216C18.4379 20.9034 17.0173 22.7837 15.105 22.9728C13.5544 23.1262 12.4633 22.6281 11.6008 21.5253C11.1932 21.0043 11.0326 20.3894 11.0001 19.7485Z" fill="#A32016"/>
<path d="M26.5425 19.9966C25.9801 19.9966 25.4176 19.9991 24.8552 19.9959C24.2913 19.9928 24.0899 19.8023 24.0456 19.2794C23.9644 18.3219 23.6702 17.4213 23.1532 16.5953C22.9589 16.2849 22.9271 16.0546 23.1889 15.7466C23.9133 14.894 24.6035 14.015 25.2903 13.1346C25.4424 12.9397 25.5292 12.9753 25.6709 13.1215C26.5273 14.0052 27.2597 14.9659 27.8117 16.0509C28.2386 16.8899 28.6226 17.7414 28.86 18.646C28.9282 18.906 28.9862 19.1738 28.9982 19.44C29.0174 19.8695 28.8885 19.9876 28.4259 19.9949C27.7982 20.0048 27.1703 19.9973 26.5425 19.9966Z" fill="#A32016"/>
</g>
<defs>
<clipPath id="clip0_2581_298">
<rect width="32" height="32" fill="white"/>
</clipPath>
</defs>
</svg>
