<svg width="74" height="48" viewBox="0 0 74 48" fill="none" xmlns="http://www.w3.org/2000/svg">
<g clip-path="url(#clip0_279_490)">
<path d="M39.7754 3.0504C37.9375 4.41376 36.1086 5.78955 34.2789 7.164C33.9533 7.40871 33.6721 7.40821 33.2758 7.23193C31.4531 6.4216 29.5015 6.14012 27.5437 5.82815C25.6139 5.52049 23.7042 5.7299 21.8636 6.07418C18.7136 6.66333 15.8654 8.06612 13.3538 10.1194C9.99686 12.8636 7.77242 16.3554 6.39292 20.4294C6.20629 20.9807 6.15517 21.5622 5.95514 22.1165C5.75181 22.68 5.38898 22.8951 4.86832 22.794C4.37694 22.6987 4.11289 22.3409 4.13522 21.8074C4.21017 20.0225 4.5993 18.306 5.16761 16.6151C6.15451 13.6793 7.54393 11.1012 9.33143 8.87727C9.77235 8.32855 10.2374 7.80153 10.727 7.29605C10.7273 7.29572 10.7276 7.29522 10.7281 7.29472C12.0645 5.91413 13.5809 4.69409 15.2761 3.63342C15.2764 3.63342 15.2766 3.63326 15.2768 3.63309C18.9203 1.39794 24.3193 -0.548602 31.6715 0.141112C31.8708 0.20672 32.0854 0.213513 32.2993 0.205892C33.1178 0.298174 33.9598 0.422929 34.8257 0.583139C34.9185 0.600369 35.0107 0.617103 35.1018 0.63367C35.9135 0.878541 36.7057 1.17925 37.5121 1.44218C38.2402 1.67959 38.9427 1.9962 39.6541 2.28415C40.1081 2.46788 40.2633 2.68856 39.7754 3.0504Z" fill="#A32016"/>
<path d="M20.758 21.7849C20.7256 17.8141 24.6086 14.7067 27.9704 15.3701C28.4296 15.4607 28.9285 15.3199 29.3614 14.9875C33.3716 11.9092 37.3961 8.84968 41.4164 5.78465C42.5368 4.93042 43.6629 4.08348 44.7737 3.21715C45.1038 2.95969 45.507 2.82019 45.7781 3.09671C46.0556 3.37952 45.8804 3.78062 45.6339 4.10568C43.8483 6.45979 42.0756 8.82367 40.2909 11.1786C38.1045 14.0635 35.915 16.9462 33.7137 19.8197C33.4867 20.1159 33.3916 20.3634 33.4703 20.7559C34.1258 24.0169 31.5725 27.6507 28.1356 28.0162C25.3488 28.3126 23.3878 27.3499 21.8376 25.2188C21.1051 24.2119 20.8164 23.0232 20.758 21.7846V21.7849Z" fill="#A32016"/>
<path d="M9.26309 30.334C9.24737 29.8721 9.0035 29.4417 8.64332 29.1792C9.0035 29.442 9.24704 29.8728 9.26243 30.3343C9.33109 32.3157 8.44181 33.2352 6.45991 33.2352H5.29285V33.2355H6.45958C8.44247 33.2358 9.33076 32.3165 9.26309 30.334ZM7.01598 28.9125C7.09953 28.9117 7.18308 28.9102 7.26663 28.9092C7.18308 28.9103 7.09953 28.9117 7.01598 28.9125Z" fill="white"/>
<path d="M9.78061 35.1394C11.3226 34.4377 12.4503 33.2861 12.711 31.5738C13.0548 29.3282 12.6422 27.1593 9.87177 26.3409C7.8323 25.737 5.74336 25.9484 3.66881 25.9035C3.42726 25.8972 3.37614 26.0109 3.33924 26.2335C3.19845 27.0745 3.03862 27.9138 2.85944 28.7484C1.92202 33.1355 0.976818 37.5196 0.0345954 41.9068C-0.0102408 42.1167 -0.0501137 42.3297 0.177046 42.4722C1.17354 42.4739 2.17003 42.4754 3.16966 42.4754C3.76312 40.9329 3.95983 39.2944 4.31174 37.6926C4.42689 37.172 4.47173 36.5761 4.76441 36.1694C5.04749 35.7736 6.1128 36.2254 6.31448 36.7764C6.82952 38.181 7.30932 39.6002 7.85149 40.9954C8.05466 41.5176 8.03067 42.1984 8.68816 42.4722H11.5992C11.7656 42.4114 11.9352 42.349 12.1048 42.288C12.1048 42.288 12.1048 42.2863 12.1032 42.2848L12.1015 42.2815C12.0103 42.1566 11.892 42.0413 11.8328 41.9003C11.0282 39.9751 10.2541 38.0354 9.42076 36.1212C9.1936 35.6006 9.23843 35.386 9.78061 35.1394ZM6.04729 29.3506C6.05473 29.306 6.06234 29.2651 6.07061 29.2277C6.07161 29.2234 6.0726 29.2192 6.07359 29.2151C6.07541 29.2069 6.07723 29.1992 6.07922 29.1915C6.07922 29.1914 6.07922 29.1912 6.07938 29.1912C6.08418 29.1718 6.08947 29.1534 6.09526 29.1362C6.0989 29.1248 6.10271 29.114 6.10685 29.1036C6.109 29.0981 6.11115 29.0928 6.11346 29.0875C6.11876 29.0754 6.12422 29.064 6.13034 29.053C6.13927 29.0366 6.1492 29.0217 6.16012 29.0083C6.16376 29.0038 6.1674 28.9995 6.17137 28.9954C6.17319 28.9932 6.17518 28.9912 6.17733 28.9892C6.24284 28.9228 6.34294 28.8975 6.50789 28.9053C6.59707 28.9097 6.68657 28.9119 6.77592 28.9129C6.82886 28.9132 6.8818 28.9132 6.93474 28.9129C6.96188 28.9127 6.98885 28.9125 7.01598 28.9122C7.09953 28.9114 7.18308 28.9099 7.26663 28.9089C7.47543 28.9061 7.68389 28.9048 7.8912 28.9164C7.90956 28.9173 7.92776 28.9185 7.94596 28.9197C7.97954 28.922 8.0128 28.9255 8.04556 28.9304C8.07815 28.9352 8.11041 28.9412 8.14235 28.9485C8.14235 28.9485 8.14246 28.9485 8.14268 28.9487C8.16385 28.9535 8.18503 28.9588 8.20588 28.9647C8.20604 28.9647 8.20621 28.9647 8.20637 28.9649C8.24691 28.9762 8.28678 28.9896 8.32583 29.0048C8.33956 29.0101 8.35313 29.0156 8.36653 29.0214C8.38423 29.0288 8.40193 29.0368 8.4193 29.0451C8.43916 29.0547 8.45868 29.0645 8.47787 29.0749C8.4969 29.085 8.51559 29.0956 8.53412 29.1067C8.53561 29.1077 8.53727 29.1087 8.53876 29.1095C8.56506 29.1254 8.59087 29.1422 8.61619 29.1597C8.62529 29.1662 8.63439 29.1725 8.64332 29.1789C9.0035 29.4417 9.24704 29.8725 9.26242 30.3341C9.33109 32.3154 8.44181 33.2349 6.45991 33.2349H5.29235C5.55938 31.8909 5.83783 30.6256 6.04729 29.3506Z" fill="white"/>
<path d="M49.2003 22.8337C48.0554 22.8337 46.9103 22.839 45.7654 22.8322C44.6174 22.8254 44.2074 22.4142 44.1172 21.2854C43.952 19.2181 43.353 17.2739 42.3005 15.4907C41.9049 14.8207 41.8402 14.3235 42.3731 13.6585C43.8479 11.8178 45.253 9.92014 46.6512 8.01949C46.9608 7.59883 47.1375 7.67571 47.4259 7.99132C49.1695 9.8991 50.6605 11.973 51.7842 14.3154C52.6533 16.1267 53.4351 17.9649 53.9183 19.9179C54.0572 20.4791 54.1753 21.0573 54.1996 21.632C54.2388 22.5592 53.9764 22.8141 53.0345 22.8299C51.7568 22.8514 50.4785 22.8352 49.2004 22.8337H49.2003Z" fill="#A32016"/>
<path d="M73.5768 31.7804C72.7513 29.5188 69.6916 28.9357 67.9095 30.6303C67.5737 30.9507 67.2601 31.2935 66.7946 31.7708C66.8761 31.018 66.7243 30.4702 67.0232 29.8551C66.2059 29.8551 65.5165 29.8599 64.8271 29.8519C64.5264 29.8488 64.336 29.9257 64.264 30.2651C63.9042 31.9277 63.4355 33.5712 63.1733 35.2466C62.7702 37.8366 62.0568 40.3562 61.5706 42.9254C61.2875 44.4246 60.9884 45.919 60.6029 47.3958C60.523 47.6985 60.5117 48.0254 61.0395 47.9981C61.8632 47.958 62.6901 47.9805 63.5156 47.9901C63.7859 47.9933 63.9059 47.9533 63.9651 47.6202C64.2515 46.0167 64.5329 44.407 64.944 42.8341C65.1055 42.2174 64.8529 41.527 65.3279 40.928C66.0012 41.897 66.7259 42.714 68.023 42.6914C70.1009 42.6546 71.4589 41.5077 72.4537 39.8371C73.2679 38.4708 73.6582 36.9684 73.9045 35.3859C74.1012 34.1173 73.994 32.9239 73.5766 31.7803L73.5768 31.7804ZM70.5089 34.2263C70.4961 34.332 70.5072 34.4394 70.5072 34.5467C70.3952 36.3647 70.1666 38.1346 68.6982 39.4594C67.6761 40.3835 66.2286 40.036 66.0701 38.6953C65.8302 36.6498 66.2445 34.7021 67.5753 33.0298C68.1704 32.2834 69.0101 32.2753 69.7395 32.4965C70.4769 32.7208 70.5889 33.4927 70.5089 34.2263Z" fill="white"/>
<path d="M40.9509 27.6015C40.8005 27.8033 40.7206 28.0596 40.6037 28.2871C39.9352 29.5862 39.9496 29.5461 38.5547 29.0272C35.9538 28.0613 33.6377 28.7084 32.2908 31.3001C31.2576 33.2879 30.8993 35.3814 31.3359 37.5871C31.6079 38.963 32.6411 39.7319 34.0391 39.8184C35.306 39.8953 36.4624 39.4996 37.6189 39.1249C38.0987 38.9695 38.2364 38.9711 38.2155 39.4869C38.198 39.9385 38.1707 40.3983 38.2203 40.8451C38.3019 41.5675 38.0476 41.9023 37.3117 42.0976C35.4051 42.6054 33.532 42.9482 31.5566 42.4116C29.5955 41.8814 28.5943 40.4831 27.9912 38.7163C27.6969 37.8561 27.5721 36.9336 27.6376 35.9966C27.7912 32.9228 28.6341 30.1036 30.8672 27.8676C32.0716 26.6615 33.5272 26.024 35.2835 25.8238C37.1342 25.6139 38.8313 25.9264 40.5427 26.5046C41.1921 26.7241 41.3921 27.0059 40.9505 27.6019L40.9509 27.6015Z" fill="white"/>
<path d="M23.511 29.9884C22.6841 29.7128 21.8139 29.684 20.9438 29.7095C18.6964 29.7768 17.0073 30.7556 15.7981 32.6713C14.987 33.9575 14.5584 35.3654 14.4096 36.8278C14.2417 38.4745 14.3553 40.1371 15.6669 41.3961C16.761 42.4484 18.1127 42.804 19.6626 42.6647C20.5166 42.8472 21.3629 42.5349 22.2058 42.2834C23.8022 41.8061 23.7958 41.7837 23.791 40.1179C23.791 40.0105 23.7862 39.9048 23.791 39.7974C23.8118 39.3811 23.7478 39.2353 23.2551 39.4339C22.1466 39.8791 21.0126 40.2108 19.7729 40.1354C18.6037 40.0634 17.6744 39.12 17.7303 37.941C17.7495 37.5214 17.9254 37.39 18.319 37.3933C19.1874 37.4013 20.0529 37.4205 20.9165 37.2523C22.3354 36.9768 23.6773 36.578 24.7059 35.468C26.1486 33.9126 25.9487 30.7989 23.511 29.9884ZM21.8059 34.3339C21.0813 34.9042 20.2479 35.2518 19.3651 35.1524C18.0215 35.1605 17.9942 35.1413 18.5524 34.0072C19.066 32.9628 19.7585 32.1122 21.0733 32.1107C21.5723 32.109 22.1291 32.0466 22.3274 32.6377C22.5498 33.2943 22.3354 33.9174 21.8059 34.3339Z" fill="white"/>
<path d="M60.8572 29.8552C60.1342 32.9146 59.6208 35.9707 58.8865 38.982C58.6642 39.8951 58.3667 40.832 58.3475 41.806C58.3427 42.0398 58.2403 42.3105 58.0164 42.4755C57.1351 42.4755 56.2569 42.4738 55.3789 42.4738C55.1869 42.4563 55.0238 42.3794 54.8878 42.2432C54.8926 42.2432 54.9327 42.2319 54.9327 42.2319L54.9151 42.1856C55.6973 38.3622 56.4923 34.5419 57.3144 30.7281C57.492 29.9032 57.7702 29.8071 58.4453 29.8439C59.2402 29.8888 60.0384 29.8552 60.8573 29.8552H60.8572Z" fill="white"/>
<path d="M59.7454 28.1124C58.5077 28.1169 58.0016 27.7353 58.0401 26.7467C58.0896 25.4737 58.8265 24.9205 59.9107 24.942C61.2804 24.9693 61.8004 25.3668 61.7334 26.3112C61.6434 27.5817 61.1433 28.1073 59.7454 28.1124Z" fill="white"/>
<path d="M52.4404 37.779C52.1221 39.2895 51.7814 40.7952 51.4456 42.3024C51.4312 42.3665 51.3465 42.4162 51.2968 42.4722C50.4042 42.4818 49.5133 42.4945 48.6224 42.4993C48.3616 42.501 48.0529 42.5346 48.1666 42.0989C48.7344 39.4224 49.3278 36.7507 49.8508 34.0644C49.9532 33.5359 49.9036 32.8647 49.2909 32.5859C48.6207 32.2815 47.9025 32.2671 47.3251 32.8278C46.3173 33.8064 45.9014 35.099 45.58 36.4125C45.116 38.3155 44.7082 40.2327 44.2843 42.1453C44.2539 42.2815 44.2299 42.4016 44.0989 42.4672C43.1024 42.4689 42.109 42.4689 41.114 42.4689C40.711 41.9915 41.0917 41.5174 41.1781 41.0785C41.6995 38.4404 42.2882 35.8151 42.8448 33.1835C43.3486 30.8048 43.8413 28.4262 44.3404 26.0461C44.3724 25.8938 44.4364 25.7449 44.4428 25.5928C44.4589 25.0802 44.6731 24.8368 45.2218 24.8688C45.8584 24.9056 46.5078 24.9425 47.1348 24.8592C47.8595 24.7631 47.9569 25.0835 47.8034 25.6457C47.2963 27.5054 47.0485 29.4274 46.391 31.3112C46.794 31.2759 46.946 30.9652 47.1396 30.7586C48.4304 29.3762 50.7786 29.434 52.0359 30.2508C52.7893 30.7394 53.01 31.6155 53.0789 32.5029C53.2149 34.3048 52.8054 36.0396 52.4406 37.779H52.4404Z" fill="white"/>
<path d="M54.9325 42.2321C54.9325 42.2321 54.8925 42.2434 54.8877 42.2434L54.8716 42.1841L54.9148 42.1857L54.9324 42.2321H54.9325Z" fill="#A32016"/>
</g>
<defs>
<clipPath id="clip0_279_490">
<rect width="74" height="48" fill="white"/>
</clipPath>
</defs>
</svg>
